<svg width="35" height="35" viewBox="0 0 35 35" fill="none" xmlns="http://www.w3.org/2000/svg">
<path d="M17.3888 34.2648C26.9924 34.2648 34.7777 26.5943 34.7777 17.1323C34.7777 7.67045 26.9924 0 17.3888 0C7.78526 0 0 7.67045 0 17.1323C0 26.5943 7.78526 34.2648 17.3888 34.2648Z" fill="url(#paint0_linear_3018_53)"/>
<path fill-rule="evenodd" clip-rule="evenodd" d="M25.2813 32.4052L11.5954 21.9658L13.5278 17.1336L10.2578 12.7407L11.5954 8.78711H25.4173L34.7805 17.1764C34.7641 23.8217 30.9074 29.5781 25.2813 32.4052Z" fill="#2D48DD"/>
<path d="M26.7447 11.1919H22.7781V26.6269C22.1313 26.6269 21.4941 26.5051 20.8663 26.2614C20.2385 26.0365 19.9246 25.7741 19.9246 25.4742V22.1286C18.5929 22.9533 17.1472 23.3655 15.5872 23.3655C14.0272 23.3655 12.7527 22.9719 11.7635 22.1847C10.7933 21.3789 10.3081 20.3386 10.3081 19.064C10.3081 18.0894 10.6505 17.2179 11.3354 16.4493C10.3652 16.0933 9.59482 15.5684 9.02408 14.8749C8.45333 14.1627 8.16797 13.3192 8.16797 12.3446C8.16797 11.3699 8.56747 10.4796 9.36655 9.67374C10.1844 8.86783 11.2974 8.46484 12.7051 8.46484C13.7323 8.46484 14.5218 8.68969 15.0737 9.13957C15.6443 9.58934 15.9297 10.1423 15.9297 10.7984C15.9297 12.129 15.0545 13.0662 13.3044 13.6097C13.0191 13.3849 12.8097 13.0662 12.6766 12.6539C13.4564 12.1478 13.8465 11.6136 13.8465 11.0513C13.8465 10.7327 13.7514 10.4796 13.5612 10.2922C13.3709 10.086 13.0666 9.98294 12.648 9.98294C12.2295 9.98294 11.8206 10.2079 11.421 10.6578C11.0215 11.1076 10.8217 11.698 10.8217 12.4289C10.8217 13.1412 11.0215 13.741 11.421 14.2284C11.8395 14.6968 12.3627 15.0249 12.9904 15.2123C13.8274 14.8 14.7691 14.4908 15.8156 14.2845C16.5383 14.9593 16.9949 15.6621 17.1853 16.3931C16.0057 16.618 15.0069 16.9741 14.189 17.4615C13.39 17.93 12.9904 18.4736 12.9904 19.0921C12.9904 19.692 13.1997 20.1792 13.6182 20.5541C14.0558 20.929 14.6741 21.1164 15.4731 21.1164C16.291 21.1164 17.0996 20.8915 17.8986 20.4417C18.6976 19.9918 19.3729 19.4014 19.9246 18.6704V11.1919H17.9556C17.2708 10.4047 16.9284 9.57064 16.9284 8.68969H25.86C26.4497 9.4394 26.7447 10.2735 26.7447 11.1919Z" fill="white"/>
<defs>
<linearGradient id="paint0_linear_3018_53" x1="12.4335" y1="9.37019" x2="26.4887" y2="29.1916" gradientUnits="userSpaceOnUse">
<stop stop-color="#7B90FF"/>
<stop offset="1" stop-color="#4059E1"/>
</linearGradient>
</defs>
</svg>
